<?xml version="1.0" encoding="utf-8"?>
<!-- Generator: Adobe Illustrator 22.1.0, SVG Export Plug-In . SVG Version: 6.00 Build 0)  -->
<svg version="1.1" id="Layer_1" xmlns="http://www.w3.org/2000/svg" xmlns:xlink="http://www.w3.org/1999/xlink" x="0px" y="0px"
	 viewBox="0 0 423.5 423.5" style="enable-background:new 0 0 423.5 423.5;" xml:space="preserve">
<style type="text/css">
	.st0{opacity:0.1;fill:#C0BBD0;}
	.st1{fill:#DFDDE8;}
</style>
<g id="rectangle_x5F_1">
	<rect x="57.2" y="57.2" class="st0" width="309" height="309"/>
	<path class="st1" d="M365.7,57.7v308h-308v-308H365.7 M366.7,56.7h-310v310h310V56.7L366.7,56.7z"/>
</g>
<g id="rectangle_x5F_1_1_">
	<rect x="57.2" y="57.2" transform="matrix(0.866 -0.5 0.5 0.866 -77.5002 134.2341)" class="st0" width="309" height="309"/>
	<path class="st1" d="M268.1,1.4l154,266.7l-266.7,154L1.4,155.4L268.1,1.4 M268.5,0L0,155l155,268.5l268.5-155L268.5,0L268.5,0z"/>
</g>
<g id="rectangle_x5F_1_2_">
	<rect x="57.2" y="57.2" transform="matrix(0.5 -0.866 0.866 0.5 -77.5003 289.2339)" class="st0" width="309" height="309"/>
	<path class="st1" d="M155.4,1.4l266.7,154l-154,266.7L1.4,268.1L155.4,1.4 M155,0L0,268.5l268.5,155l155-268.5L155,0L155,0z"/>
</g>
</svg>
